<svg width="17" height="16" viewBox="0 0 17 16" fill="none" xmlns="http://www.w3.org/2000/svg">
<g clip-path="url(#clip0_1323_654)">
<path d="M8.5 0C3.806 0 0 3.06002 0 6.83502C0 9.27602 1.591 11.418 3.984 12.627C3.854 13.085 3.148 15.573 3.119 15.768C3.119 15.768 3.103 15.915 3.196 15.971C3.289 16.031 3.399 15.988 3.399 15.988C3.666 15.95 6.5 13.92 6.99 13.566C7.48 13.634 7.985 13.671 8.5 13.671C13.194 13.671 17 10.61 17 6.83502C17 3.06002 13.194 0 8.5 0Z" fill="#111111" fill-opacity="0.9"/>
</g>
<defs>
<clipPath id="clip0_1323_654">
<rect width="17" height="16" fill="white"/>
</clipPath>
</defs>
</svg>
